<?xml version="1.0" encoding="utf-8"?>
<!-- Generator: Adobe Illustrator 25.0.0, SVG Export Plug-In . SVG Version: 6.00 Build 0)  -->
<svg version="1.1" id="图层_1" xmlns="http://www.w3.org/2000/svg" xmlns:xlink="http://www.w3.org/1999/xlink" x="0px" y="0px"
	 viewBox="0 0 24 24" style="enable-background:new 0 0 24 24;" xml:space="preserve">
<style type="text/css">
	.st0{fill:none;}
</style>
<path class="st0" d="M0,0h24v24H0V0z"/>
<path d="M4.6,4.2c-0.2,0-0.3,0.1-0.3,0.3v11.6c0,0.2,0.2,0.3,0.3,0.3h9.6l4.4,3.8c0.1,0.1,0.2,0.1,0.2,0.1c0.1,0,0.1,0,0.2,0
	c0.2-0.1,0.2-0.2,0.2-0.3V4.5c0-0.2-0.2-0.3-0.3-0.3H4.6L4.6,4.2z M11.7,7.1c0.7,0,1.3,0.5,1.3,1.3s-0.5,1.3-1.3,1.3
	c-0.7,0-1.3-0.5-1.3-1.3S11,7.1,11.7,7.1z M8.2,9.1c0.5,0,0.9,0.5,0.9,0.9c0,0.5-0.5,0.9-0.9,0.9s-0.9-0.4-0.9-0.8
	C7.2,9.6,7.7,9.1,8.2,9.1z M15.3,9.1c0.5,0,0.9,0.5,0.9,0.9c0,0.5-0.5,0.9-0.9,0.9s-0.9-0.5-0.9-0.9C14.3,9.5,14.7,9.1,15.3,9.1z
	 M11.7,11c0.2,0,0.2,0,0.4,0c0.1,0,0.2,0,0.2,0l0,0h0.1c0.1,0,0.2,0,0.2,0.1l0,0c1.1,0.3,1.3,1.1,1.3,1.4v0.5H9.5v-0.5
	c0-0.3,0.2-1.1,1.3-1.4l0,0c0.1,0,0.2,0,0.2-0.1h0.1l0,0c0.1,0,0.2,0,0.2,0C11.4,11,11.6,11,11.7,11z M8.2,11.7
	c0.3,0,0.5,0.1,0.8,0.2c-0.2,0.2-0.2,0.5-0.2,0.7V13H6.5v-0.3C6.6,12.3,7,11.7,8.2,11.7z M15.3,11.7c1.2,0,1.6,0.8,1.6,1V13h-2.3
	v-0.5c0-0.2-0.1-0.5-0.2-0.7C14.7,11.7,15,11.7,15.3,11.7z"/>
</svg>
